<svg
				id="visual"
				viewBox="0 0 540 960"
				width="540"
				height="960"
				xmlns="http://www.w3.org/2000/svg"
				xmlns:xlink="http://www.w3.org/1999/xlink"
				version="1.1"
			>
				<rect x="0" y="0" width="540" height="960" fill="#614173"></rect>
				<g transform="translate(240.48387789140457 510.5219045952143)">
					<path id="blob1"
						d="M137.9 -132.8C181.6 -94.3 221.8 -47.1 227 5.2C232.2 57.5 202.4 115 158.7 137.5C115 160 57.5 147.5 2.9 144.6C-51.6 141.6 -103.2 148.2 -128.9 125.7C-154.6 103.2 -154.3 51.6 -160.3 -6C-166.3 -63.6 -178.6 -127.3 -152.9 -165.8C-127.3 -204.3 -63.6 -217.6 -8.2 -209.4C47.1 -201.1 94.3 -171.3 137.9 -132.8"
						fill="#15142C"
					></path>
				</g>
                				<g transform="translate(274.81230811600085 485.9356977712061)">
					<path id="blob2" 
						d="M148.6 -132C189.8 -107.5 218.4 -53.7 221.2 2.8C224.1 59.4 201.1 118.8 160 141.3C118.8 163.8 59.4 149.4 3.2 146.2C-53 143 -106.1 151.1 -149.1 128.6C-192.1 106.1 -225 53 -230.3 -5.3C-235.6 -63.6 -213.3 -127.3 -170.3 -151.8C-127.3 -176.3 -63.6 -161.6 -4.9 -156.7C53.7 -151.7 107.5 -156.5 148.6 -132"
						fill="#15142C"
					></path>
				</g>
			</svg>