<svg id="visual" viewBox="0 0 540 960" width="540" height="960" xmlns="http://www.w3.org/2000/svg" xmlns:xlink="http://www.w3.org/1999/xlink" version="1.1"><rect x="0" y="0" width="540" height="960" fill="#001122"></rect><path d="M0 301L77 337L154 359L231 351L309 363L386 396L463 390L540 312L540 0L463 0L386 0L309 0L231 0L154 0L77 0L0 0Z" fill="#614173"></path><path d="M0 218L77 224L154 226L231 261L309 201L386 319L463 329L540 261L540 0L463 0L386 0L309 0L231 0L154 0L77 0L0 0Z" fill="#7a3e79"></path><path d="M0 222L77 140L154 148L231 155L309 148L386 258L463 167L540 196L540 0L463 0L386 0L309 0L231 0L154 0L77 0L0 0Z" fill="#943879"></path><path d="M0 137L77 159L154 150L231 167L309 108L386 163L463 121L540 161L540 0L463 0L386 0L309 0L231 0L154 0L77 0L0 0Z" fill="#ae2f73"></path><path d="M0 96L77 75L154 49L231 66L309 110L386 65L463 80L540 68L540 0L463 0L386 0L309 0L231 0L154 0L77 0L0 0Z" fill="#c62368"></path></svg>