<svg id="visual" viewBox="0 0 540 960" width="540" height="960" xmlns="http://www.w3.org/2000/svg" xmlns:xlink="http://www.w3.org/1999/xlink" version="1.1"><rect x="0" y="0" width="540" height="960" fill="#001122"></rect><path d="M0 449L49 449L49 417L98 417L98 470L147 470L147 412L196 412L196 404L245 404L245 376L295 376L295 491L344 491L344 469L393 469L393 444L442 444L442 391L491 391L491 370L540 370L540 497L540 0L540 0L491 0L491 0L442 0L442 0L393 0L393 0L344 0L344 0L295 0L295 0L245 0L245 0L196 0L196 0L147 0L147 0L98 0L98 0L49 0L49 0L0 0Z" fill="#9900ff"></path><path d="M0 344L49 344L49 366L98 366L98 385L147 385L147 285L196 285L196 322L245 322L245 343L295 343L295 346L344 346L344 338L393 338L393 353L442 353L442 336L491 336L491 397L540 397L540 329L540 0L540 0L491 0L491 0L442 0L442 0L393 0L393 0L344 0L344 0L295 0L295 0L245 0L245 0L196 0L196 0L147 0L147 0L98 0L98 0L49 0L49 0L0 0Z" fill="#8800e2"></path><path d="M0 206L49 206L49 281L98 281L98 313L147 313L147 264L196 264L196 307L245 307L245 281L295 281L295 234L344 234L344 319L393 319L393 299L442 299L442 252L491 252L491 254L540 254L540 309L540 0L540 0L491 0L491 0L442 0L442 0L393 0L393 0L344 0L344 0L295 0L295 0L245 0L245 0L196 0L196 0L147 0L147 0L98 0L98 0L49 0L49 0L0 0Z" fill="#7700c6"></path><path d="M0 168L49 168L49 214L98 214L98 144L147 144L147 180L196 180L196 179L245 179L245 225L295 225L295 161L344 161L344 152L393 152L393 201L442 201L442 155L491 155L491 121L540 121L540 155L540 0L540 0L491 0L491 0L442 0L442 0L393 0L393 0L344 0L344 0L295 0L295 0L245 0L245 0L196 0L196 0L147 0L147 0L98 0L98 0L49 0L49 0L0 0Z" fill="#6600ab"></path><path d="M0 128L49 128L49 59L98 59L98 50L147 50L147 56L196 56L196 55L245 55L245 58L295 58L295 74L344 74L344 88L393 88L393 137L442 137L442 135L491 135L491 106L540 106L540 81L540 0L540 0L491 0L491 0L442 0L442 0L393 0L393 0L344 0L344 0L295 0L295 0L245 0L245 0L196 0L196 0L147 0L147 0L98 0L98 0L49 0L49 0L0 0Z" fill="#560090"></path></svg>