<svg id="visual" viewBox="0 0 960 540" width="960" height="540" xmlns="http://www.w3.org/2000/svg" xmlns:xlink="http://www.w3.org/1999/xlink" version="1.1"><rect x="0" y="0" width="960" height="540" fill="#15142C"></rect><path d="M0 325L17.8 339.5C35.7 354 71.3 383 106.8 395.2C142.3 407.3 177.7 402.7 213.2 381C248.7 359.3 284.3 320.7 320 333C355.7 345.3 391.3 408.7 426.8 439C462.3 469.3 497.7 466.7 533.2 460.3C568.7 454 604.3 444 640 416.7C675.7 389.3 711.3 344.7 746.8 339.8C782.3 335 817.7 370 853.2 391.5C888.7 413 924.3 421 942.2 425L960 429L960 541L942.2 541C924.3 541 888.7 541 853.2 541C817.7 541 782.3 541 746.8 541C711.3 541 675.7 541 640 541C604.3 541 568.7 541 533.2 541C497.7 541 462.3 541 426.8 541C391.3 541 355.7 541 320 541C284.3 541 248.7 541 213.2 541C177.7 541 142.3 541 106.8 541C71.3 541 35.7 541 17.8 541L0 541Z" fill="#001122" stroke-linecap="round" stroke-linejoin="miter"></path></svg>