<svg id="visual" viewBox="0 0 960 540" width="960" height="540" xmlns="http://www.w3.org/2000/svg" xmlns:xlink="http://www.w3.org/1999/xlink" version="1.1"><rect x="0" y="0" width="960" height="540" fill="#15142C"></rect><path d="M0 213L17.8 198.5C35.7 184 71.3 155 106.8 142.8C142.3 130.7 177.7 135.3 213.2 157C248.7 178.7 284.3 217.3 320 205C355.7 192.7 391.3 129.3 426.8 99C462.3 68.7 497.7 71.3 533.2 77.7C568.7 84 604.3 94 640 121.3C675.7 148.7 711.3 193.3 746.8 198.2C782.3 203 817.7 168 853.2 146.5C888.7 125 924.3 117 942.2 113L960 109L960 0L942.2 0C924.3 0 888.7 0 853.2 0C817.7 0 782.3 0 746.8 0C711.3 0 675.7 0 640 0C604.3 0 568.7 0 533.2 0C497.7 0 462.3 0 426.8 0C391.3 0 355.7 0 320 0C284.3 0 248.7 0 213.2 0C177.7 0 142.3 0 106.8 0C71.3 0 35.7 0 17.8 0L0 0Z" fill="#001122" stroke-linecap="round" stroke-linejoin="miter"></path></svg>