<svg id="visual" viewBox="0 0 960 540" width="960" height="540" xmlns="http://www.w3.org/2000/svg" xmlns:xlink="http://www.w3.org/1999/xlink" version="1.1"><rect x="0" y="0" width="960" height="540" fill="#001220"></rect><defs><linearGradient id="grad1_0" x1="43.8%" y1="100%" x2="100%" y2="0%"><stop offset="14.444444444444446%" stop-color="#001220" stop-opacity="1"></stop><stop offset="85.55555555555554%" stop-color="#001220" stop-opacity="1"></stop></linearGradient></defs><defs><linearGradient id="grad2_0" x1="0%" y1="100%" x2="56.3%" y2="0%"><stop offset="14.444444444444446%" stop-color="#001220" stop-opacity="1"></stop><stop offset="85.55555555555554%" stop-color="#001220" stop-opacity="1"></stop></linearGradient></defs><g transform="translate(960, 540)"><path d="M-378 0C-336.5 -21 -295.1 -42 -282.7 -64.5C-270.4 -87 -287.2 -111.1 -298.2 -143.6C-309.2 -176.2 -314.4 -217.3 -295.5 -235.7C-276.7 -254.1 -233.7 -249.7 -202.6 -254.1C-171.6 -258.4 -152.4 -271.5 -130.6 -271.2C-108.8 -270.9 -84.5 -257.4 -62.3 -273C-40.1 -288.6 -20.1 -333.3 0 -378L0 0Z" fill="#FF863B"></path></g><g transform="translate(0, 0)"><path d="M378 0C340 21.8 301.9 43.7 284.7 65C267.4 86.3 271 107.1 264.9 127.6C258.8 148 243.2 168 222.8 177.7C202.5 187.4 177.5 186.6 167.1 209.5C156.7 232.4 161 279 149.7 310.8C138.4 342.7 111.6 359.8 84.1 368.5C56.6 377.3 28.3 377.6 0 378L0 0Z" fill="#FF863B"></path></g></svg>