<svg id="visual" viewBox="0 0 960 540" width="960" height="540" xmlns="http://www.w3.org/2000/svg" xmlns:xlink="http://www.w3.org/1999/xlink" version="1.1"><rect x="0" y="0" width="960" height="540" fill="#001220"></rect><defs><linearGradient id="grad1_0" x1="43.8%" y1="100%" x2="100%" y2="0%"><stop offset="14.444444444444446%" stop-color="#001220" stop-opacity="1"></stop><stop offset="85.55555555555554%" stop-color="#001220" stop-opacity="1"></stop></linearGradient></defs><defs><linearGradient id="grad2_0" x1="0%" y1="100%" x2="56.3%" y2="0%"><stop offset="14.444444444444446%" stop-color="#001220" stop-opacity="1"></stop><stop offset="85.55555555555554%" stop-color="#001220" stop-opacity="1"></stop></linearGradient></defs><g transform="translate(960, 540)"><path d="M-378 0C-362.9 -27.4 -347.8 -54.8 -327.6 -74.8C-307.4 -94.7 -282.2 -107.1 -276.6 -133.2C-271 -159.3 -285.2 -199 -276 -220.1C-266.8 -241.1 -234.3 -243.5 -215.1 -269.7C-195.9 -296 -189.8 -346 -164 -340.6C-138.2 -335.1 -92.5 -274.1 -61.9 -271C-31.2 -268 -15.6 -323 0 -378L0 0Z" fill="#FF863B"></path></g><g transform="translate(0, 0)"><path d="M378 0C380.3 30.1 382.6 60.2 368.5 84.1C354.4 108 324 125.6 301.8 145.4C279.7 165.1 265.9 186.9 243.1 193.9C220.4 200.9 188.6 193.1 177.7 222.8C166.8 252.5 176.8 319.7 160.1 332.5C143.4 345.3 100.1 303.7 69 302.2C37.9 300.8 18.9 339.4 0 378L0 0Z" fill="#FF863B"></path></g></svg>