<svg id="visual" viewBox="0 0 540 960" width="540" height="960" xmlns="http://www.w3.org/2000/svg" xmlns:xlink="http://www.w3.org/1999/xlink" version="1.1"><rect x="0" y="0" width="540" height="960" fill="#15142c"></rect><defs><linearGradient id="grad1_0" x1="0%" y1="100%" x2="100%" y2="0%"><stop offset="30%" stop-color="#15142c" stop-opacity="1"></stop><stop offset="70%" stop-color="#15142c" stop-opacity="1"></stop></linearGradient></defs><defs><linearGradient id="grad2_0" x1="0%" y1="100%" x2="100%" y2="0%"><stop offset="30%" stop-color="#15142c" stop-opacity="1"></stop><stop offset="70%" stop-color="#15142c" stop-opacity="1"></stop></linearGradient></defs><g transform="translate(540, 960)"><path d="M-378 0C-337.9 -18.8 -297.9 -37.7 -300.3 -68.5C-302.7 -99.4 -347.5 -142.3 -340.6 -164C-333.6 -185.7 -274.7 -186.3 -240 -191.4C-205.3 -196.5 -194.7 -206.1 -187.7 -235.3C-180.7 -264.5 -177.3 -313.3 -157.9 -328C-138.6 -342.6 -103.3 -323 -74.3 -325.6C-45.3 -328.3 -22.7 -353.1 0 -378L0 0Z" fill="#FF863B"></path></g><g transform="translate(0, 0)"><path d="M378 0C352.5 22.4 327.1 44.8 325.6 74.3C324.2 103.9 346.8 140.6 335.2 161.4C323.5 182.2 277.6 187.1 252.5 201.4C227.5 215.7 223.2 239.5 213.2 267.4C203.3 295.3 187.6 327.2 164 340.6C140.4 354 109 348.8 80.3 351.9C51.7 355.1 25.8 366.5 0 378L0 0Z" fill="#FF863B"></path></g></svg>