<svg id="visual" viewBox="0 0 960 540" width="960" height="540" xmlns="http://www.w3.org/2000/svg" xmlns:xlink="http://www.w3.org/1999/xlink" version="1.1"><rect x="0" y="0" width="960" height="540" fill="#15142C"></rect><path d="M0 364L22.8 369.5C45.7 375 91.3 386 137 389.8C182.7 393.7 228.3 390.3 274 383.7C319.7 377 365.3 367 411.2 363.7C457 360.3 503 363.7 548.8 364.8C594.7 366 640.3 365 686 361.7C731.7 358.3 777.3 352.7 823 346C868.7 339.3 914.3 331.7 937.2 327.8L960 324L960 541L937.2 541C914.3 541 868.7 541 823 541C777.3 541 731.7 541 686 541C640.3 541 594.7 541 548.8 541C503 541 457 541 411.2 541C365.3 541 319.7 541 274 541C228.3 541 182.7 541 137 541C91.3 541 45.7 541 22.8 541L0 541Z" fill="#fa7268"></path><path d="M0 357L22.8 358.7C45.7 360.3 91.3 363.7 137 375C182.7 386.3 228.3 405.7 274 412.7C319.7 419.7 365.3 414.3 411.2 409.7C457 405 503 401 548.8 401.2C594.7 401.3 640.3 405.7 686 410.3C731.7 415 777.3 420 823 421.7C868.7 423.3 914.3 421.7 937.2 420.8L960 420L960 541L937.2 541C914.3 541 868.7 541 823 541C777.3 541 731.7 541 686 541C640.3 541 594.7 541 548.8 541C503 541 457 541 411.2 541C365.3 541 319.7 541 274 541C228.3 541 182.7 541 137 541C91.3 541 45.7 541 22.8 541L0 541Z" fill="#ef5f67"></path><path d="M0 417L22.8 413.2C45.7 409.3 91.3 401.7 137 405.2C182.7 408.7 228.3 423.3 274 429C319.7 434.7 365.3 431.3 411.2 425.5C457 419.7 503 411.3 548.8 406.2C594.7 401 640.3 399 686 398.3C731.7 397.7 777.3 398.3 823 408.2C868.7 418 914.3 437 937.2 446.5L960 456L960 541L937.2 541C914.3 541 868.7 541 823 541C777.3 541 731.7 541 686 541C640.3 541 594.7 541 548.8 541C503 541 457 541 411.2 541C365.3 541 319.7 541 274 541C228.3 541 182.7 541 137 541C91.3 541 45.7 541 22.8 541L0 541Z" fill="#e34c67"></path><path d="M0 475L22.8 469.3C45.7 463.7 91.3 452.3 137 451C182.7 449.7 228.3 458.3 274 458.3C319.7 458.3 365.3 449.7 411.2 446.7C457 443.7 503 446.3 548.8 453.3C594.7 460.3 640.3 471.7 686 475.3C731.7 479 777.3 475 823 474.5C868.7 474 914.3 477 937.2 478.5L960 480L960 541L937.2 541C914.3 541 868.7 541 823 541C777.3 541 731.7 541 686 541C640.3 541 594.7 541 548.8 541C503 541 457 541 411.2 541C365.3 541 319.7 541 274 541C228.3 541 182.7 541 137 541C91.3 541 45.7 541 22.8 541L0 541Z" fill="#d53867"></path><path d="M0 498L22.8 494.7C45.7 491.3 91.3 484.7 137 482.5C182.7 480.3 228.3 482.7 274 488.8C319.7 495 365.3 505 411.2 507.7C457 510.3 503 505.7 548.8 500.8C594.7 496 640.3 491 686 486.8C731.7 482.7 777.3 479.3 823 482.3C868.7 485.3 914.3 494.7 937.2 499.3L960 504L960 541L937.2 541C914.3 541 868.7 541 823 541C777.3 541 731.7 541 686 541C640.3 541 594.7 541 548.8 541C503 541 457 541 411.2 541C365.3 541 319.7 541 274 541C228.3 541 182.7 541 137 541C91.3 541 45.7 541 22.8 541L0 541Z" fill="#c62368"></path></svg>